<svg width="94" height="19" viewBox="0 0 94 19" fill="none" xmlns="http://www.w3.org/2000/svg">
<path d="M21.7416 4.45117H20.1712C19.5519 4.45117 19.0432 4.97721 19.0432 5.61764V17.6258C19.0432 18.2662 19.5519 18.7923 20.1712 18.7923H21.7416C22.3609 18.7923 22.8696 18.2662 22.8696 17.6258V5.61764C22.8696 4.97721 22.3609 4.45117 21.7416 4.45117Z" fill="#EE0033"/>
<path d="M16.1017 4.45117C15.1064 4.45117 14.288 5.06873 13.8899 5.93789L9.73176 15.0869C9.64329 15.2928 9.44421 15.6587 9.26727 15.6587C9.09033 15.6587 8.9134 15.3157 8.80281 15.0869L4.62257 5.93789C4.22445 5.06873 3.38398 4.45117 2.4108 4.45117H0L6.61315 17.6715C7.27668 18.9752 8.60376 18.9524 9.28941 18.9524C10.2405 18.9524 11.3464 18.9066 11.9435 17.6715L18.5567 4.45117H16.1017Z" fill="#EE0033"/>
<path d="M89.0678 2.25539C89.0678 1.61496 88.5591 1.08887 87.9398 1.08887H86.3695C85.7502 1.08887 85.2415 1.61496 85.2415 2.25539V14.1034C85.2415 15.9103 85.8608 16.9625 86.9666 17.7173C88.0504 18.4492 89.289 18.7694 91.6113 18.7694H92.872C93.4913 18.7694 94.0001 18.2434 94.0001 17.6029V16.3449H93.049C92.3633 16.3449 90.9257 16.322 90.0631 15.7273C88.9572 14.9725 89.0457 13.6231 89.0457 12.6395V2.25539H89.0678Z" fill="#EE0033"/>
<path d="M64.5834 16.3449C63.8978 16.3449 62.4601 16.322 61.5975 15.7273C60.4916 14.9725 60.5801 13.6231 60.5801 12.6395V6.87565H64.2959C64.9152 6.87565 65.4239 6.34961 65.4239 5.70918V4.45118H60.5801V2.25539C60.5801 1.61496 60.0714 1.08887 59.4521 1.08887H57.8817C57.2624 1.08887 56.7537 1.61496 56.7537 2.25539V4.45118H48.7693V2.25539C48.7693 1.61496 48.2606 1.08887 47.6413 1.08887H46.0709C45.4516 1.08887 44.9429 1.61496 44.9429 2.25539V4.45118H42.5542V5.70918C42.5542 6.34961 43.0629 6.87565 43.6822 6.87565H44.9429V14.1034C44.9429 15.9103 45.5622 16.9625 46.6681 17.7173C47.7519 18.4492 48.9905 18.7694 51.3128 18.7694H52.5735C53.1928 18.7694 53.7015 18.2434 53.7015 17.6029V16.3449H52.7505C52.0648 16.3449 50.6272 16.322 49.7646 15.7273C48.6587 14.9725 48.7471 13.6231 48.7471 12.6395V6.87565H56.7316V14.1034C56.7316 15.9103 57.3509 16.9625 58.4568 17.7173C59.5406 18.4492 60.7792 18.7694 63.1015 18.7694H64.3622C64.9815 18.7694 65.4902 18.2434 65.4902 17.6029V16.3449H64.5834Z" fill="#EE0033"/>
<path d="M41.1829 17.6256V16.3677H32.7118C31.2963 16.3677 29.7038 16.2075 29.2172 14.6522C29.0845 14.2176 28.9961 13.3028 28.9961 12.6852H39.0596C39.7452 12.6852 40.4088 12.5708 40.9175 12.1362C41.6474 11.5415 41.7359 10.6952 41.7359 9.96333C41.7359 8.15639 41.3156 6.37232 39.2808 5.32018C37.6883 4.47389 35.5872 4.40527 33.5523 4.40527C31.9156 4.40527 28.974 4.40531 27.0718 5.75479C25.1697 7.10427 25.0149 9.07133 25.0149 11.7703C25.0149 13.6687 25.1034 15.6357 26.2535 16.9852C27.6911 18.6549 29.7923 18.7922 31.5396 18.7922H40.0328C40.6742 18.7922 41.1829 18.2661 41.1829 17.6256ZM37.7768 9.39151C37.7768 9.78035 37.6883 10.2378 36.9363 10.2378H31.4954C30.102 10.2378 28.9961 10.9011 28.9961 11.7017V10.2378C29.0182 9.30001 28.9961 8.49951 29.7702 7.76759C30.8097 6.78407 32.3801 6.82979 33.3975 6.82979C34.4813 6.82979 35.7199 6.87555 36.6709 7.47024C37.2239 7.8362 37.7768 8.49948 37.7768 9.39151Z" fill="#EE0033"/>
<path d="M82.543 17.6256V16.3677H74.072C72.6564 16.3677 71.0639 16.2075 70.5774 14.6522C70.4446 14.2176 70.3562 13.3028 70.3562 12.6852H80.4197C81.1054 12.6852 81.7689 12.5708 82.2776 12.1362C83.0075 11.5415 83.096 10.6952 83.096 9.96333C83.096 8.15639 82.6757 6.37232 80.6409 5.32018C79.0484 4.47389 76.9473 4.40527 74.9124 4.40527C73.2757 4.40527 70.3341 4.40531 68.432 5.75479C66.5298 7.10427 66.375 9.07133 66.375 11.7703C66.375 13.6687 66.4635 15.6357 67.6136 16.9852C69.0513 18.6549 71.1524 18.7922 72.9218 18.7922H81.415C82.0343 18.7922 82.543 18.2661 82.543 17.6256ZM79.1369 9.39151C79.1369 9.78035 79.0484 10.2378 78.2964 10.2378H72.8555C71.4621 10.2378 70.3562 10.9011 70.3562 11.7017V10.2378C70.3783 9.30001 70.3562 8.49951 71.1303 7.76759C72.1698 6.78407 73.7402 6.82979 74.7576 6.82979C75.8414 6.82979 77.08 6.87555 78.031 7.47024C78.584 7.8362 79.1369 8.49948 79.1369 9.39151Z" fill="#EE0033"/>
<path d="M21.7416 0.448242H20.1712C19.5519 0.448242 19.0432 0.974279 19.0432 1.61471V1.93496V4.45095H19.0654C19.1759 3.78764 19.9058 3.10143 20.9675 3.10143H21.7416C22.3609 3.10143 22.8696 2.57539 22.8696 1.93496V1.61471C22.8696 0.951406 22.3609 0.448242 21.7416 0.448242Z" fill="#EE0033"/>
</svg>
